<!--
  - SPDX-License-Identifier: AGPL-3.0-only
  - openrouter.svg
  - Copyright (C) 2025 Nextify Limited
  -
  - This program is free software: you can redistribute it and/or modify
  - it under the terms of the GNU Affero General Public License as
  - published by the Free Software Foundation, either version 3 of the
  - License, or (at your option) any later version.
  -
  - This program is distributed in the hope that it will be useful,
  - but WITHOUT ANY WARRANTY; without even the implied warranty of
  - MERCHANTABILITY or FITNESS FOR A PARTICULAR PURPOSE. See the
  - GNU Affero General Public License for more details.
  -
  - You should have received a copy of the GNU Affero General Public License
  - along with this program. If not, see <https://www.gnu.org/licenses/>.
  -
  -->

<svg fill="#000" fill-rule="evenodd" style="flex:none;line-height:1" viewBox="0 0 24 24" width="1em"
     xmlns="http://www.w3.org/2000/svg">
    <title>OpenRouter</title>
    <path d="M4 12a3 3 0 1 1 5.874.874L11 14h2l1.126-1.126A3 3 0 1 1 16 14a2.99 2.99 0 0 1-1.809-.607L13 14.586V17a3 3 0 1 1-2 0v-2.414l-1.191-1.193A2.99 2.99 0 0 1 8 14a3 3 0 0 1-3-3l-2-.5V9l2-.5A3 3 0 0 1 4 12Zm3-1.5a1.5 1.5 0 1 0 0 3 1.5 1.5 0 0 0 0-3Zm9 0a1.5 1.5 0 1 0 0 3 1.5 1.5 0 0 0 0-3ZM12 18a1.5 1.5 0 1 0 0 3 1.5 1.5 0 0 0 0-3Zm0-15a3 3 0 0 1 3 3v.086l2.086 2.087a1 1 0 0 1-1.414 1.414L13.586 7.5H10.414l-2.086 2.087a1 1 0 1 1-1.414-1.414L9 6.086V6a3 3 0 0 1 3-3Zm0 1.5A1.5 1.5 0 0 0 10.5 6 1.5 1.5 0 0 0 12 7.5 1.5 1.5 0 0 0 13.5 6 1.5 1.5 0 0 0 12 4.5Z"></path>
</svg>
